<svg xmlns="http://www.w3.org/2000/svg" width="20.32" height="17.188"><defs><filter id="a" x="1475.34" y="91.906" width="20.32" height="17.188" filterUnits="userSpaceOnUse"><feFlood result="flood" flood-color="#555"/><feComposite result="composite" operator="in" in2="SourceGraphic"/><feBlend result="blend" in2="SourceGraphic"/></filter></defs><path d="M1490.97 107.538a1.567 1.567 0 1 0 .46-1.106 1.532 1.532 0 0 0-.46 1.106zm4.47-13.846a.763.763 0 0 0-.55-.233h-14.68q-.015-.084-.06-.311t-.06-.36a2.167 2.167 0 0 0-.1-.324.9.9 0 0 0-.15-.3.963.963 0 0 0-.25-.19.75.75 0 0 0-.35-.079h-3.13a.782.782 0 0 0 0 1.564h2.5l2.16 10.058c-.02.032-.1.187-.25.463s-.27.52-.36.728a1.369 1.369 0 0 0-.14.483.742.742 0 0 0 .24.55.75.75 0 0 0 .55.232h12.51a.75.75 0 0 0 .55-.232.773.773 0 0 0 0-1.1.747.747 0 0 0-.55-.233h-11.24a2.448 2.448 0 0 0 .29-.782 1.34 1.34 0 0 0-.03-.268c-.02-.1-.04-.206-.07-.324s-.05-.206-.06-.263l12.76-1.491a.764.764 0 0 0 .5-.262.778.778 0 0 0 .2-.52v-6.256a.768.768 0 0 0-.23-.55zm-15.42 13.846a1.567 1.567 0 1 0 .46-1.106 1.532 1.532 0 0 0-.46 1.106z" transform="translate(-1475.34 -91.906)" fill-rule="evenodd" filter="url(#a)"/></svg>