<svg xmlns="http://www.w3.org/2000/svg" width="16" height="16"><defs><filter id="a" x="1424" y="14" width="16" height="16" filterUnits="userSpaceOnUse"><feFlood result="flood" flood-color="#363636"/><feComposite result="composite" operator="in" in2="SourceGraphic"/><feBlend result="blend" in2="SourceGraphic"/></filter></defs><path d="M1437 14h-10a3 3 0 0 0-3 3v10a3 3 0 0 0 3 3h10a3 3 0 0 0 3-3V17a3 3 0 0 0-3-3zm-2.93 8h-1.31v4.8h-1.8V22h-1.2v-1.655h1.2v-.975c0-1.35.36-2.171 1.95-2.171h1.32v1.654h-.82c-.62 0-.65.231-.65.662l-.01.828h1.49z" transform="translate(-1424 -14)" fill-rule="evenodd" filter="url(#a)"/></svg>