<svg xmlns="http://www.w3.org/2000/svg" width="15" height="15"><defs><filter id="a" x="375" y="14" width="15" height="15" filterUnits="userSpaceOnUse"><feFlood result="flood" flood-color="#363636"/><feComposite result="composite" operator="in" in2="SourceGraphic"/><feBlend result="blend" in2="SourceGraphic"/></filter></defs><path d="M383 14.016V14h-1v.017A7.5 7.5 0 0 0 375.017 21H375v1h.017A7.5 7.5 0 0 0 382 28.981V29h1v-.019A7.5 7.5 0 0 0 389.982 22H390v-1h-.018A7.5 7.5 0 0 0 383 14.016zm-3.3 1.618A7.955 7.955 0 0 0 378.519 18h-1.5a6.535 6.535 0 0 1 2.681-2.366zM376.5 19h1.758a11.875 11.875 0 0 0-.246 2h-1.991a6.44 6.44 0 0 1 .479-2zm-.479 3h1.991a11.874 11.874 0 0 0 .246 2H376.5a6.45 6.45 0 0 1-.481-2zm1 3h1.5a7.932 7.932 0 0 0 1.177 2.365A6.532 6.532 0 0 1 377.021 25zM382 27.935c-1.028-.275-1.913-1.379-2.45-2.936H382v2.936zM382 24h-2.731a11.187 11.187 0 0 1-.259-2H382v2zm0-3h-2.99a11.169 11.169 0 0 1 .259-2H382v2zm0-3h-2.45c.537-1.557 1.422-2.661 2.45-2.935V18zm5.978 0h-1.5a7.957 7.957 0 0 0-1.177-2.365A6.532 6.532 0 0 1 387.978 18zM383 15.064c1.027.274 1.913 1.378 2.45 2.935H383v-2.935zM383 19h2.73a11.168 11.168 0 0 1 .26 2H383v-2zm0 3h2.99a11.1 11.1 0 0 1-.26 2H383v-2zm0 5.936V25h2.45c-.537 1.555-1.423 2.66-2.45 2.935zm2.305-.571A7.979 7.979 0 0 0 386.482 25h1.5a6.529 6.529 0 0 1-2.677 2.364zM388.5 24h-1.758a11.874 11.874 0 0 0 .246-2h1.99a6.421 6.421 0 0 1-.478 2zm-1.512-3a11.875 11.875 0 0 0-.246-2h1.758a6.411 6.411 0 0 1 .478 2h-1.99z" transform="translate(-375 -14)" fill-rule="evenodd" filter="url(#a)"/></svg>