<svg xmlns="http://www.w3.org/2000/svg" width="16" height="16"><defs><filter id="a" x="1487" y="14" width="16" height="16" filterUnits="userSpaceOnUse"><feFlood result="flood" flood-color="#363636"/><feComposite result="composite" operator="in" in2="SourceGraphic"/><feBlend result="blend" in2="SourceGraphic"/></filter></defs><path d="M1500 14h-10a3 3 0 0 0-3 3v10a3 3 0 0 0 3 3h10a3 3 0 0 0 3-3V17a3 3 0 0 0-3-3zm-7 11.875h-2v-7h2v7zm-.94-7.429a.938.938 0 1 1 .94-.938.938.938 0 0 1-.94.937zm7.94 7.429h-2v-4.329a.7.7 0 0 0-.77-.861 1.2 1.2 0 0 0-1.23.861v4.328h-2v-7h2v.669a3.361 3.361 0 0 1 2-.668c.65 0 2 .388 2 2.732v4.267z" transform="translate(-1487 -14)" fill-rule="evenodd" filter="url(#a)"/></svg>