<svg xmlns="http://www.w3.org/2000/svg" width="19.03" height="16"><defs><filter id="a" x="1048.97" y="14" width="19.03" height="16" filterUnits="userSpaceOnUse"><feFlood result="flood" flood-color="#363636"/><feComposite result="composite" operator="in" in2="SourceGraphic"/><feBlend result="blend" in2="SourceGraphic"/></filter></defs><path d="M1066.95 15.067a3.43 3.43 0 0 0-2.52-1.055h-3.97a.371.371 0 0 0-.25.081.419.419 0 0 0-.12.244 1.712 1.712 0 0 0-.04.293c0 .087 0 .2.01.331s.01.216.01.25a.353.353 0 0 1 .02.168.106.106 0 0 0 .09.112.149.149 0 0 1 .1.069.193.193 0 0 0 .14.037l.14.012h3.87a1.9 1.9 0 0 1 1.4.587 1.921 1.921 0 0 1 .58 1.41v8.788a1.92 1.92 0 0 1-.58 1.41 1.9 1.9 0 0 1-1.4.587h-3.97a.372.372 0 0 0-.25.081.417.417 0 0 0-.12.243 1.712 1.712 0 0 0-.04.293c0 .087 0 .2.01.331s.01.216.01.25a.382.382 0 0 0 .12.281.361.361 0 0 0 .27.119h3.97a3.429 3.429 0 0 0 2.52-1.055 3.469 3.469 0 0 0 1.05-2.54v-8.788a3.469 3.469 0 0 0-1.05-2.539zM1063.64 22a.765.765 0 0 0-.24-.562l-6.74-6.79a.761.761 0 0 0-.56-.237.778.778 0 0 0-.56.237.794.794 0 0 0-.23.562v3.59h-5.55a.815.815 0 0 0-.8.8v4.8a.814.814 0 0 0 .8.8h5.55v3.6a.793.793 0 0 0 .23.561.779.779 0 0 0 .56.238.762.762 0 0 0 .56-.238l6.74-6.79a.764.764 0 0 0 .24-.571z" transform="translate(-1048.97 -14)" fill-rule="evenodd" filter="url(#a)"/></svg>