<svg xmlns="http://www.w3.org/2000/svg" width="17.031" height="16"><defs><filter id="a" x="675.969" y="14" width="17.031" height="16" filterUnits="userSpaceOnUse"><feFlood result="flood" flood-color="#363636"/><feComposite result="composite" operator="in" in2="SourceGraphic"/><feBlend result="blend" in2="SourceGraphic"/></filter></defs><path d="M676.638 20.139a1.082 1.082 0 0 0-.248 1.88l3.481 2.547 12.362-9.784L681.3 25.616l4.76 3.484a1.193 1.193 0 0 0 1.827-.56l5.09-14.014a.387.387 0 0 0-.091-.408.381.381 0 0 0-.407-.085zm2.407 5.274l.029.163.676 3.716a.833.833 0 0 0 1.272.555 22.692 22.692 0 0 0 2.136-1.468z" transform="translate(-675.969 -14)" fill-rule="evenodd" filter="url(#a)"/></svg>