<svg xmlns="http://www.w3.org/2000/svg" width="16" height="16"><defs><filter id="a" x="1529" y="14" width="16" height="16" filterUnits="userSpaceOnUse"><feFlood result="flood" flood-color="#363636"/><feComposite result="composite" operator="in" in2="SourceGraphic"/><feBlend result="blend" in2="SourceGraphic"/></filter></defs><path d="M1542 14h-10a3 3 0 0 0-3 3v10a3 3 0 0 0 3 3h10a3 3 0 0 0 3-3V17a3 3 0 0 0-3-3zm-8.69 12.977a1.3 1.3 0 1 1 1.31-1.3 1.3 1.3 0 0 1-1.31 1.299zm3.28.012a4.583 4.583 0 0 0-4.58-4.587v-1.878a6.464 6.464 0 0 1 6.46 6.464h-1.88zm3.33 0a7.918 7.918 0 0 0-7.9-7.91V17.2a9.8 9.8 0 0 1 9.78 9.785h-1.88z" transform="translate(-1529 -14)" fill-rule="evenodd" filter="url(#a)"/></svg>