<svg xmlns="http://www.w3.org/2000/svg" width="18.32" height="18.312"><defs><filter id="a" x="1525.34" y="90.344" width="18.32" height="18.312" filterUnits="userSpaceOnUse"><feFlood result="flood" flood-color="#555"/><feComposite result="composite" operator="in" in2="SourceGraphic"/><feBlend result="blend" in2="SourceGraphic"/></filter></defs><path d="M1543.24 106.252l-3.77-3.773a7.526 7.526 0 0 0 1.37-4.387 7.731 7.731 0 0 0-.61-3.008 7.565 7.565 0 0 0-4.13-4.125 7.728 7.728 0 0 0-6.02 0 7.771 7.771 0 0 0-2.47 1.649 7.849 7.849 0 0 0-1.65 2.475 7.72 7.72 0 0 0 0 6.016 7.843 7.843 0 0 0 1.65 2.475 7.765 7.765 0 0 0 2.47 1.65 7.623 7.623 0 0 0 3.01.611 7.517 7.517 0 0 0 4.39-1.364l3.77 3.761a1.324 1.324 0 0 0 .99.418 1.431 1.431 0 0 0 1.41-1.408 1.318 1.318 0 0 0-.41-.99zm-6.67-4.68a4.9 4.9 0 1 1 1.45-3.48 4.732 4.732 0 0 1-1.45 3.48z" transform="translate(-1525.34 -90.344)" fill-rule="evenodd" filter="url(#a)"/></svg>