<svg xmlns="http://www.w3.org/2000/svg" width="16" height="16"><defs><filter id="a" x="1466" y="14" width="16" height="16" filterUnits="userSpaceOnUse"><feFlood result="flood" flood-color="#363636"/><feComposite result="composite" operator="in" in2="SourceGraphic"/><feBlend result="blend" in2="SourceGraphic"/></filter></defs><path d="M1479 14h-10a3 3 0 0 0-3 3v10a3 3 0 0 0 3 3h10a3 3 0 0 0 3-3V17a3 3 0 0 0-3-3zm-2 7.4h-2.4v2.2a4.173 4.173 0 0 0 .05 1.036.9.9 0 0 0 .37.414 1.359 1.359 0 0 0 .72.191 1.943 1.943 0 0 0 1.26-.381v1.44a5.513 5.513 0 0 1-1.1.384 4.8 4.8 0 0 1-1.08.116 2.862 2.862 0 0 1-1.03-.166 2.534 2.534 0 0 1-.87-.474 1.658 1.658 0 0 1-.49-.655 2.658 2.658 0 0 1-.14-1v-3.372H1471v-1.36a3.289 3.289 0 0 0 1.07-.527 2.725 2.725 0 0 0 .65-.824 3.756 3.756 0 0 0 .33-1.222h1.55v2.4h2.4v1.8z" transform="translate(-1466 -14)" fill-rule="evenodd" filter="url(#a)"/></svg>