<svg xmlns="http://www.w3.org/2000/svg" width="9.969" height="16"><defs><filter id="a" x="508.031" y="13.938" width="9.969" height="16" filterUnits="userSpaceOnUse"><feFlood result="flood" flood-color="#363636"/><feComposite result="composite" operator="in" in2="SourceGraphic"/><feBlend result="blend" in2="SourceGraphic"/></filter></defs><path d="M511.077 29.907a12.524 12.524 0 0 1-1.377 0 1.871 1.871 0 0 1-1.661-2.139V15.992a2.1 2.1 0 0 1 2.213-2.059h5.348s2.4-.073 2.4 2.08v11.213a4.6 4.6 0 0 1-.12 1.233 2.118 2.118 0 0 1-2.233 1.447h-4.564zm1.9-.934a.533.533 0 1 0-.586-.53.561.561 0 0 0 .589.53zm1-14.041h-1.937a.617.617 0 0 0-.689.5.618.618 0 0 0 .689.5h1.937a.618.618 0 0 0 .689-.5.618.618 0 0 0-.681-.5zm2.213 1.995h-6.363a.659.659 0 0 0-.69.623v8.742a.659.659 0 0 0 .69.622h6.373a.659.659 0 0 0 .69-.622v-8.743a.659.659 0 0 0-.69-.622z" transform="translate(-508.031 -13.938)" fill-rule="evenodd" filter="url(#a)"/></svg>