<svg xmlns="http://www.w3.org/2000/svg" width="16" height="16"><defs><filter id="a" x="1445" y="14" width="16" height="16" filterUnits="userSpaceOnUse"><feFlood result="flood" flood-color="#e5493a"/><feComposite result="composite" operator="in" in2="SourceGraphic"/><feBlend result="blend" in2="SourceGraphic"/></filter></defs><path d="M1458 14h-10a3 3 0 0 0-3 3v10a3 3 0 0 0 3 3h10a3 3 0 0 0 3-3V17a3 3 0 0 0-3-3zm-1.02 6.2l.01.255a5.606 5.606 0 0 1-8.63 4.719 4.259 4.259 0 0 0 .47.029 3.964 3.964 0 0 0 2.45-.844 1.972 1.972 0 0 1-1.84-1.368 2.011 2.011 0 0 0 .37.034 1.984 1.984 0 0 0 .52-.068 1.972 1.972 0 0 1-1.58-1.931V21a1.985 1.985 0 0 0 .89.247 1.991 1.991 0 0 1-.61-2.629 5.586 5.586 0 0 0 4.06 2.058 2.219 2.219 0 0 1-.05-.449 1.972 1.972 0 0 1 3.41-1.347 3.979 3.979 0 0 0 1.25-.478 1.985 1.985 0 0 1-.87 1.09 3.889 3.889 0 0 0 1.13-.31 3.817 3.817 0 0 1-.98 1.018z" transform="translate(-1445 -14)" fill-rule="evenodd" filter="url(#a)"/></svg>