<svg xmlns="http://www.w3.org/2000/svg" width="19.81" height="15.969"><defs><filter id="a" x="1230.19" y="14" width="19.81" height="15.969" filterUnits="userSpaceOnUse"><feFlood result="flood" flood-color="#363636"/><feComposite result="composite" operator="in" in2="SourceGraphic"/><feBlend result="blend" in2="SourceGraphic"/></filter></defs><path d="M1249.98 19.71a4.478 4.478 0 0 0 .03-.52 21.749 21.749 0 0 1-14.65-5.2 5.191 5.191 0 0 0-5.18 5.2 4.478 4.478 0 0 0 .03.52s.1 5.119 9.95 10.27c9.85-5.15 9.82-10.27 9.82-10.27zm-14.47-4.574a.853.853 0 1 1-.85.854.851.851 0 0 1 .85-.854zm-2.66 6.383a.893.893 0 0 1-.24.033.883.883 0 0 1-.85-.651 5.568 5.568 0 0 1-.21-1.315 3.916 3.916 0 0 1 1.27-3.187.889.889 0 0 1 1.1 1.4 2.174 2.174 0 0 0-.6 1.624 3.57 3.57 0 0 0 .15 1 .9.9 0 0 1-.62 1.096z" transform="translate(-1230.19 -14)" fill-rule="evenodd" filter="url(#a)"/></svg>