<svg xmlns="http://www.w3.org/2000/svg" xmlns:xlink="http://www.w3.org/1999/xlink" width="20.32" height="17.188" viewBox="0 0 20.32 17.188">
  <metadata><?xpacket begin="﻿" id="W5M0MpCehiHzreSzNTczkc9d"?>
<x:xmpmeta xmlns:x="adobe:ns:meta/" x:xmptk="Adobe XMP Core 5.6-c138 79.159824, 2016/09/14-01:09:01        ">
   <rdf:RDF xmlns:rdf="http://www.w3.org/1999/02/22-rdf-syntax-ns#">
      <rdf:Description rdf:about=""/>
   </rdf:RDF>
</x:xmpmeta>
                                                                                                    
                                                                                                    
                                                                                                    
                                                                                                    
                                                                                                    
                                                                                                    
                                                                                                    
                                                                                                    
                                                                                                    
                                                                                                    
                                                                                                    
                                                                                                    
                                                                                                    
                                                                                                    
                                                                                                    
                                                                                                    
                                                                                                    
                                                                                                    
                                                                                                    
                                                                                                    
                           
<?xpacket end="w"?></metadata>
<defs>
    <style>
      .cls-1 {
        fill-rule: evenodd;
        filter: url(#filter);
      }
    </style>
    <filter id="filter" x="1475.34" y="91.906" width="20.32" height="17.188" filterUnits="userSpaceOnUse">
      <feFlood result="flood" flood-color="#555"/>
      <feComposite result="composite" operator="in" in2="SourceGraphic"/>
      <feBlend result="blend" in2="SourceGraphic"/>
    </filter>
  </defs>
  <path id="icon" class="cls-1" d="M1490.97,107.538a1.567,1.567,0,1,0,.46-1.106A1.532,1.532,0,0,0,1490.97,107.538Zm4.47-13.846a0.763,0.763,0,0,0-.55-0.233h-14.68q-0.015-.084-0.06-0.311t-0.06-.36a2.167,2.167,0,0,0-.1-0.324,0.9,0.9,0,0,0-.15-0.3,0.963,0.963,0,0,0-.25-0.19,0.75,0.75,0,0,0-.35-0.079h-3.13a0.782,0.782,0,0,0,0,1.564h2.5l2.16,10.058c-0.02.032-.1,0.187-0.25,0.463s-0.27.52-.36,0.728a1.369,1.369,0,0,0-.14.483,0.742,0.742,0,0,0,.24.55,0.75,0.75,0,0,0,.55.232h12.51a0.75,0.75,0,0,0,.55-0.232,0.773,0.773,0,0,0,0-1.1,0.747,0.747,0,0,0-.55-0.233h-11.24a2.448,2.448,0,0,0,.29-0.782,1.34,1.34,0,0,0-.03-0.268c-0.02-.1-0.04-0.206-0.07-0.324s-0.05-.206-0.06-0.263l12.76-1.491a0.764,0.764,0,0,0,.5-0.262,0.778,0.778,0,0,0,.2-0.52V94.242A0.768,0.768,0,0,0,1495.44,93.692Zm-15.42,13.846a1.567,1.567,0,1,0,.46-1.106A1.532,1.532,0,0,0,1480.02,107.538Z" transform="translate(-1475.34 -91.906)"/>
</svg>
