<svg xmlns="http://www.w3.org/2000/svg" xmlns:xlink="http://www.w3.org/1999/xlink" width="15" height="15" viewBox="0 0 15 15">
  <metadata><?xpacket begin="﻿" id="W5M0MpCehiHzreSzNTczkc9d"?>
<x:xmpmeta xmlns:x="adobe:ns:meta/" x:xmptk="Adobe XMP Core 5.6-c138 79.159824, 2016/09/14-01:09:01        ">
   <rdf:RDF xmlns:rdf="http://www.w3.org/1999/02/22-rdf-syntax-ns#">
      <rdf:Description rdf:about=""/>
   </rdf:RDF>
</x:xmpmeta>
                                                                                                    
                                                                                                    
                                                                                                    
                                                                                                    
                                                                                                    
                                                                                                    
                                                                                                    
                                                                                                    
                                                                                                    
                                                                                                    
                                                                                                    
                                                                                                    
                                                                                                    
                                                                                                    
                                                                                                    
                                                                                                    
                                                                                                    
                                                                                                    
                                                                                                    
                                                                                                    
                           
<?xpacket end="w"?></metadata>
<defs>
    <style>
      .cls-1 {
        fill-rule: evenodd;
        filter: url(#filter);
      }
    </style>
    <filter id="filter" x="375" y="14" width="15" height="15" filterUnits="userSpaceOnUse">
      <feFlood result="flood" flood-color="#363636"/>
      <feComposite result="composite" operator="in" in2="SourceGraphic"/>
      <feBlend result="blend" in2="SourceGraphic"/>
    </filter>
  </defs>
  <path id="icon" class="cls-1" d="M383,14.016V14h-1v0.017A7.5,7.5,0,0,0,375.017,21H375v1h0.017A7.5,7.5,0,0,0,382,28.981V29h1V28.981A7.5,7.5,0,0,0,389.982,22H390V21h-0.018A7.5,7.5,0,0,0,383,14.016ZM379.7,15.634A7.955,7.955,0,0,0,378.519,18h-1.5A6.535,6.535,0,0,1,379.7,15.634ZM376.5,19h1.758a11.875,11.875,0,0,0-.246,2h-1.991A6.44,6.44,0,0,1,376.5,19Zm-0.479,3h1.991a11.874,11.874,0,0,0,.246,2H376.5A6.45,6.45,0,0,1,376.019,22Zm1,3h1.5a7.932,7.932,0,0,0,1.177,2.365A6.532,6.532,0,0,1,377.021,25ZM382,27.935c-1.028-.275-1.913-1.379-2.45-2.936H382v2.936ZM382,24h-2.731a11.187,11.187,0,0,1-.259-2H382v2Zm0-3h-2.99a11.169,11.169,0,0,1,.259-2H382v2Zm0-3h-2.45c0.537-1.557,1.422-2.661,2.45-2.935V18Zm5.978,0h-1.5a7.957,7.957,0,0,0-1.177-2.365A6.532,6.532,0,0,1,387.978,18ZM383,15.064c1.027,0.274,1.913,1.378,2.45,2.935H383V15.064ZM383,19h2.73a11.168,11.168,0,0,1,.26,2H383V19Zm0,3h2.99a11.1,11.1,0,0,1-.26,2H383V22Zm0,5.936V25h2.45C384.913,26.555,384.027,27.66,383,27.935Zm2.305-.571A7.979,7.979,0,0,0,386.482,25h1.5A6.529,6.529,0,0,1,385.305,27.364ZM388.5,24h-1.758a11.874,11.874,0,0,0,.246-2h1.99A6.421,6.421,0,0,1,388.5,24Zm-1.512-3a11.875,11.875,0,0,0-.246-2H388.5a6.411,6.411,0,0,1,.478,2h-1.99Z" transform="translate(-375 -14)"/>
</svg>
