<svg xmlns="http://www.w3.org/2000/svg" xmlns:xlink="http://www.w3.org/1999/xlink" width="16" height="16" viewBox="0 0 16 16">
  <metadata><?xpacket begin="﻿" id="W5M0MpCehiHzreSzNTczkc9d"?>
<x:xmpmeta xmlns:x="adobe:ns:meta/" x:xmptk="Adobe XMP Core 5.6-c138 79.159824, 2016/09/14-01:09:01        ">
   <rdf:RDF xmlns:rdf="http://www.w3.org/1999/02/22-rdf-syntax-ns#">
      <rdf:Description rdf:about=""/>
   </rdf:RDF>
</x:xmpmeta>
                                                                                                    
                                                                                                    
                                                                                                    
                                                                                                    
                                                                                                    
                                                                                                    
                                                                                                    
                                                                                                    
                                                                                                    
                                                                                                    
                                                                                                    
                                                                                                    
                                                                                                    
                                                                                                    
                                                                                                    
                                                                                                    
                                                                                                    
                                                                                                    
                                                                                                    
                                                                                                    
                           
<?xpacket end="w"?></metadata>
<defs>
    <style>
      .cls-1 {
        fill-rule: evenodd;
        filter: url(#filter);
      }
    </style>
    <filter id="filter" x="1508" y="14" width="16" height="16" filterUnits="userSpaceOnUse">
      <feFlood result="flood" flood-color="#363636"/>
      <feComposite result="composite" operator="in" in2="SourceGraphic"/>
      <feBlend result="blend" in2="SourceGraphic"/>
    </filter>
  </defs>
  <path id="google_" data-name="google+" class="cls-1" d="M1521,14h-10a3,3,0,0,0-3,3V27a3,3,0,0,0,3,3h10a3,3,0,0,0,3-3V17A3,3,0,0,0,1521,14Zm-7.23,13.383c-1.77,0-3.27-.72-3.27-1.873,0-1.169,1.37-2.3,3.14-2.3l0.55-.005a1.143,1.143,0,0,1-.27-1.477l-0.3.01a2.309,2.309,0,0,1-2.43-2.318,2.685,2.685,0,0,1,2.78-2.338h3.19l-0.72.517h-1.01a1.9,1.9,0,0,1,1.03,1.841,2.132,2.132,0,0,1-.9,1.665,1.037,1.037,0,0,0-.61.914,2.076,2.076,0,0,0,.84.993,2.223,2.223,0,0,1,1.11,2.072C1516.9,26.237,1515.79,27.382,1513.77,27.382Zm8.23-6.363h-2v2h-1v-2h-2V20h2V18h1v2h2v1.019Zm-6.69-1.514a2.12,2.12,0,0,0-1.74-1.969c-0.82-.024-1.37.8-1.23,1.881a2.152,2.152,0,0,0,1.74,2C1514.9,21.439,1515.46,20.584,1515.31,19.5Zm-0.54,4.134a2.661,2.661,0,0,0-.79-0.127c-1.23-.013-2.33.746-2.33,1.659a1.914,1.914,0,0,0,2.11,1.706c1.72,0,2.32-.728,2.32-1.658a1.211,1.211,0,0,0-.04-0.329A2.56,2.56,0,0,0,1514.77,23.637Z" transform="translate(-1508 -14)"/>
</svg>
