<svg xmlns="http://www.w3.org/2000/svg" xmlns:xlink="http://www.w3.org/1999/xlink" width="16" height="16" viewBox="0 0 16 16">
  <metadata><?xpacket begin="﻿" id="W5M0MpCehiHzreSzNTczkc9d"?>
<x:xmpmeta xmlns:x="adobe:ns:meta/" x:xmptk="Adobe XMP Core 5.6-c138 79.159824, 2016/09/14-01:09:01        ">
   <rdf:RDF xmlns:rdf="http://www.w3.org/1999/02/22-rdf-syntax-ns#">
      <rdf:Description rdf:about=""/>
   </rdf:RDF>
</x:xmpmeta>
                                                                                                    
                                                                                                    
                                                                                                    
                                                                                                    
                                                                                                    
                                                                                                    
                                                                                                    
                                                                                                    
                                                                                                    
                                                                                                    
                                                                                                    
                                                                                                    
                                                                                                    
                                                                                                    
                                                                                                    
                                                                                                    
                                                                                                    
                                                                                                    
                                                                                                    
                                                                                                    
                           
<?xpacket end="w"?></metadata>
<defs>
    <style>
      .cls-1 {
        fill-rule: evenodd;
        filter: url(#filter);
      }
    </style>
    <filter id="filter" x="1487" y="14" width="16" height="16" filterUnits="userSpaceOnUse">
      <feFlood result="flood" flood-color="#363636"/>
      <feComposite result="composite" operator="in" in2="SourceGraphic"/>
      <feBlend result="blend" in2="SourceGraphic"/>
    </filter>
  </defs>
  <path id="linkedin" class="cls-1" d="M1500,14h-10a3,3,0,0,0-3,3V27a3,3,0,0,0,3,3h10a3,3,0,0,0,3-3V17A3,3,0,0,0,1500,14Zm-7,11.875h-2v-7h2v7Zm-0.94-7.429a0.938,0.938,0,1,1,.94-0.938A0.938,0.938,0,0,1,1492.06,18.445Zm7.94,7.429h-2V21.546a0.7,0.7,0,0,0-.77-0.861,1.2,1.2,0,0,0-1.23.861v4.328h-2v-7h2v0.669a3.361,3.361,0,0,1,2-.668c0.65,0,2,.388,2,2.732v4.267Z" transform="translate(-1487 -14)"/>
</svg>
