<svg xmlns="http://www.w3.org/2000/svg" xmlns:xlink="http://www.w3.org/1999/xlink" width="19.03" height="16" viewBox="0 0 19.03 16">
  <metadata><?xpacket begin="﻿" id="W5M0MpCehiHzreSzNTczkc9d"?>
<x:xmpmeta xmlns:x="adobe:ns:meta/" x:xmptk="Adobe XMP Core 5.6-c138 79.159824, 2016/09/14-01:09:01        ">
   <rdf:RDF xmlns:rdf="http://www.w3.org/1999/02/22-rdf-syntax-ns#">
      <rdf:Description rdf:about=""/>
   </rdf:RDF>
</x:xmpmeta>
                                                                                                    
                                                                                                    
                                                                                                    
                                                                                                    
                                                                                                    
                                                                                                    
                                                                                                    
                                                                                                    
                                                                                                    
                                                                                                    
                                                                                                    
                                                                                                    
                                                                                                    
                                                                                                    
                                                                                                    
                                                                                                    
                                                                                                    
                                                                                                    
                                                                                                    
                                                                                                    
                           
<?xpacket end="w"?></metadata>
<defs>
    <style>
      .cls-1 {
        fill-rule: evenodd;
        filter: url(#filter);
      }
    </style>
    <filter id="filter" x="1048.97" y="14" width="19.03" height="16" filterUnits="userSpaceOnUse">
      <feFlood result="flood" flood-color="#363636"/>
      <feComposite result="composite" operator="in" in2="SourceGraphic"/>
      <feBlend result="blend" in2="SourceGraphic"/>
    </filter>
  </defs>
  <path id="icon" class="cls-1" d="M1066.95,15.067a3.43,3.43,0,0,0-2.52-1.055h-3.97a0.371,0.371,0,0,0-.25.081,0.419,0.419,0,0,0-.12.244,1.712,1.712,0,0,0-.04.293c0,0.087,0,.2.01,0.331s0.01,0.216.01,0.25a0.353,0.353,0,0,1,.02.168,0.106,0.106,0,0,0,.09.112,0.149,0.149,0,0,1,.1.069,0.193,0.193,0,0,0,.14.037l0.14,0.012h3.87a1.9,1.9,0,0,1,1.4.587,1.921,1.921,0,0,1,.58,1.41v8.788a1.92,1.92,0,0,1-.58,1.41,1.9,1.9,0,0,1-1.4.587h-3.97a0.372,0.372,0,0,0-.25.081,0.417,0.417,0,0,0-.12.243,1.712,1.712,0,0,0-.04.293c0,0.087,0,.2.01,0.331s0.01,0.216.01,0.25a0.382,0.382,0,0,0,.12.281,0.361,0.361,0,0,0,.27.119h3.97a3.429,3.429,0,0,0,2.52-1.055,3.469,3.469,0,0,0,1.05-2.54V17.606A3.469,3.469,0,0,0,1066.95,15.067ZM1063.64,22a0.765,0.765,0,0,0-.24-0.562l-6.74-6.79a0.761,0.761,0,0,0-.56-0.237,0.778,0.778,0,0,0-.56.237,0.794,0.794,0,0,0-.23.562V18.8h-5.55a0.815,0.815,0,0,0-.8.8V24.4a0.814,0.814,0,0,0,.8.8h5.55v3.6a0.793,0.793,0,0,0,.23.561,0.779,0.779,0,0,0,.56.238,0.762,0.762,0,0,0,.56-0.238l6.74-6.79A0.764,0.764,0,0,0,1063.64,22Z" transform="translate(-1048.97 -14)"/>
</svg>
