<svg xmlns="http://www.w3.org/2000/svg" xmlns:xlink="http://www.w3.org/1999/xlink" width="16" height="16" viewBox="0 0 16 16">
  <metadata><?xpacket begin="﻿" id="W5M0MpCehiHzreSzNTczkc9d"?>
<x:xmpmeta xmlns:x="adobe:ns:meta/" x:xmptk="Adobe XMP Core 5.6-c138 79.159824, 2016/09/14-01:09:01        ">
   <rdf:RDF xmlns:rdf="http://www.w3.org/1999/02/22-rdf-syntax-ns#">
      <rdf:Description rdf:about=""/>
   </rdf:RDF>
</x:xmpmeta>
                                                                                                    
                                                                                                    
                                                                                                    
                                                                                                    
                                                                                                    
                                                                                                    
                                                                                                    
                                                                                                    
                                                                                                    
                                                                                                    
                                                                                                    
                                                                                                    
                                                                                                    
                                                                                                    
                                                                                                    
                                                                                                    
                                                                                                    
                                                                                                    
                                                                                                    
                                                                                                    
                           
<?xpacket end="w"?></metadata>
<defs>
    <style>
      .cls-1 {
        fill-rule: evenodd;
        filter: url(#filter);
      }
    </style>
    <filter id="filter" x="1529" y="14" width="16" height="16" filterUnits="userSpaceOnUse">
      <feFlood result="flood" flood-color="#363636"/>
      <feComposite result="composite" operator="in" in2="SourceGraphic"/>
      <feBlend result="blend" in2="SourceGraphic"/>
    </filter>
  </defs>
  <path id="rss" class="cls-1" d="M1542,14h-10a3,3,0,0,0-3,3V27a3,3,0,0,0,3,3h10a3,3,0,0,0,3-3V17A3,3,0,0,0,1542,14Zm-8.69,12.977a1.3,1.3,0,1,1,1.31-1.3A1.3,1.3,0,0,1,1533.31,26.976Zm3.28,0.012a4.583,4.583,0,0,0-4.58-4.587V20.524a6.464,6.464,0,0,1,6.46,6.464h-1.88Zm3.33,0a7.918,7.918,0,0,0-7.9-7.91V17.2a9.8,9.8,0,0,1,9.78,9.785h-1.88Z" transform="translate(-1529 -14)"/>
</svg>
