<svg xmlns="http://www.w3.org/2000/svg" xmlns:xlink="http://www.w3.org/1999/xlink" width="16" height="16" viewBox="0 0 16 16">
  <metadata><?xpacket begin="﻿" id="W5M0MpCehiHzreSzNTczkc9d"?>
<x:xmpmeta xmlns:x="adobe:ns:meta/" x:xmptk="Adobe XMP Core 5.6-c138 79.159824, 2016/09/14-01:09:01        ">
   <rdf:RDF xmlns:rdf="http://www.w3.org/1999/02/22-rdf-syntax-ns#">
      <rdf:Description rdf:about=""/>
   </rdf:RDF>
</x:xmpmeta>
                                                                                                    
                                                                                                    
                                                                                                    
                                                                                                    
                                                                                                    
                                                                                                    
                                                                                                    
                                                                                                    
                                                                                                    
                                                                                                    
                                                                                                    
                                                                                                    
                                                                                                    
                                                                                                    
                                                                                                    
                                                                                                    
                                                                                                    
                                                                                                    
                                                                                                    
                                                                                                    
                           
<?xpacket end="w"?></metadata>
<defs>
    <style>
      .cls-1 {
        fill-rule: evenodd;
        filter: url(#filter);
      }
    </style>
    <filter id="filter" x="1466" y="14" width="16" height="16" filterUnits="userSpaceOnUse">
      <feFlood result="flood" flood-color="#363636"/>
      <feComposite result="composite" operator="in" in2="SourceGraphic"/>
      <feBlend result="blend" in2="SourceGraphic"/>
    </filter>
  </defs>
  <path id="tumblr" class="cls-1" d="M1479,14h-10a3,3,0,0,0-3,3V27a3,3,0,0,0,3,3h10a3,3,0,0,0,3-3V17A3,3,0,0,0,1479,14Zm-2,7.4h-2.4v2.2a4.173,4.173,0,0,0,.05,1.036,0.9,0.9,0,0,0,.37.414,1.359,1.359,0,0,0,.72.191,1.943,1.943,0,0,0,1.26-.381V26.3a5.513,5.513,0,0,1-1.1.384,4.8,4.8,0,0,1-1.08.116,2.862,2.862,0,0,1-1.03-.166,2.534,2.534,0,0,1-.87-0.474,1.658,1.658,0,0,1-.49-0.655,2.658,2.658,0,0,1-.14-1V21.133H1471v-1.36a3.289,3.289,0,0,0,1.07-.527,2.725,2.725,0,0,0,.65-0.824,3.756,3.756,0,0,0,.33-1.222h1.55v2.4h2.4v1.8Z" transform="translate(-1466 -14)"/>
</svg>
