<svg xmlns="http://www.w3.org/2000/svg" xmlns:xlink="http://www.w3.org/1999/xlink" width="16" height="16" viewBox="0 0 16 16">
  <metadata><?xpacket begin="﻿" id="W5M0MpCehiHzreSzNTczkc9d"?>
<x:xmpmeta xmlns:x="adobe:ns:meta/" x:xmptk="Adobe XMP Core 5.6-c138 79.159824, 2016/09/14-01:09:01        ">
   <rdf:RDF xmlns:rdf="http://www.w3.org/1999/02/22-rdf-syntax-ns#">
      <rdf:Description rdf:about=""/>
   </rdf:RDF>
</x:xmpmeta>
                                                                                                    
                                                                                                    
                                                                                                    
                                                                                                    
                                                                                                    
                                                                                                    
                                                                                                    
                                                                                                    
                                                                                                    
                                                                                                    
                                                                                                    
                                                                                                    
                                                                                                    
                                                                                                    
                                                                                                    
                                                                                                    
                                                                                                    
                                                                                                    
                                                                                                    
                                                                                                    
                           
<?xpacket end="w"?></metadata>
<defs>
    <style>
      .cls-1 {
        fill-rule: evenodd;
        filter: url(#filter);
      }
    </style>
    <filter id="filter" x="1445" y="14" width="16" height="16" filterUnits="userSpaceOnUse">
      <feFlood result="flood" flood-color="#e5493a"/>
      <feComposite result="composite" operator="in" in2="SourceGraphic"/>
      <feBlend result="blend" in2="SourceGraphic"/>
    </filter>
  </defs>
  <path id="twitter" class="cls-1" d="M1458,14h-10a3,3,0,0,0-3,3V27a3,3,0,0,0,3,3h10a3,3,0,0,0,3-3V17A3,3,0,0,0,1458,14Zm-1.02,6.2,0.01,0.255a5.606,5.606,0,0,1-8.63,4.719,4.259,4.259,0,0,0,.47.029,3.964,3.964,0,0,0,2.45-.844,1.972,1.972,0,0,1-1.84-1.368,2.011,2.011,0,0,0,.37.034,1.984,1.984,0,0,0,.52-0.068,1.972,1.972,0,0,1-1.58-1.931V21a1.985,1.985,0,0,0,.89.247,1.991,1.991,0,0,1-.61-2.629,5.586,5.586,0,0,0,4.06,2.058,2.219,2.219,0,0,1-.05-0.449,1.972,1.972,0,0,1,3.41-1.347,3.979,3.979,0,0,0,1.25-.478,1.985,1.985,0,0,1-.87,1.09,3.889,3.889,0,0,0,1.13-.31A3.817,3.817,0,0,1,1456.98,20.2Z" transform="translate(-1445 -14)"/>
</svg>
