<svg xmlns="http://www.w3.org/2000/svg" xmlns:xlink="http://www.w3.org/1999/xlink" width="19.81" height="15.969" viewBox="0 0 19.81 15.969">
  <metadata><?xpacket begin="﻿" id="W5M0MpCehiHzreSzNTczkc9d"?>
<x:xmpmeta xmlns:x="adobe:ns:meta/" x:xmptk="Adobe XMP Core 5.6-c138 79.159824, 2016/09/14-01:09:01        ">
   <rdf:RDF xmlns:rdf="http://www.w3.org/1999/02/22-rdf-syntax-ns#">
      <rdf:Description rdf:about=""/>
   </rdf:RDF>
</x:xmpmeta>
                                                                                                    
                                                                                                    
                                                                                                    
                                                                                                    
                                                                                                    
                                                                                                    
                                                                                                    
                                                                                                    
                                                                                                    
                                                                                                    
                                                                                                    
                                                                                                    
                                                                                                    
                                                                                                    
                                                                                                    
                                                                                                    
                                                                                                    
                                                                                                    
                                                                                                    
                                                                                                    
                           
<?xpacket end="w"?></metadata>
<defs>
    <style>
      .cls-1 {
        fill-rule: evenodd;
        filter: url(#filter);
      }
    </style>
    <filter id="filter" x="1230.19" y="14" width="19.81" height="15.969" filterUnits="userSpaceOnUse">
      <feFlood result="flood" flood-color="#363636"/>
      <feComposite result="composite" operator="in" in2="SourceGraphic"/>
      <feBlend result="blend" in2="SourceGraphic"/>
    </filter>
  </defs>
  <path id="icon" class="cls-1" d="M1249.98,19.71a4.478,4.478,0,0,0,.03-0.52,21.749,21.749,0,0,1-14.65-5.2,5.191,5.191,0,0,0-5.18,5.2,4.478,4.478,0,0,0,.03.52s0.1,5.119,9.95,10.27h0C1250.01,24.83,1249.98,19.71,1249.98,19.71Zm-14.47-4.574a0.853,0.853,0,1,1-.85.854A0.851,0.851,0,0,1,1235.51,15.136Zm-2.66,6.383a0.893,0.893,0,0,1-.24.033,0.883,0.883,0,0,1-.85-0.651,5.568,5.568,0,0,1-.21-1.315,3.916,3.916,0,0,1,1.27-3.187,0.889,0.889,0,0,1,1.1,1.4,2.174,2.174,0,0,0-.6,1.624,3.57,3.57,0,0,0,.15,1A0.9,0.9,0,0,1,1232.85,21.519Z" transform="translate(-1230.19 -14)"/>
</svg>
